<?xml version="1.0" encoding="utf-8"?>
<!-- Generator: Adobe Illustrator 25.1.0, SVG Export Plug-In . SVG Version: 6.00 Build 0)  -->
<svg version="1.1" id="Layer_1" xmlns="http://www.w3.org/2000/svg" xmlns:xlink="http://www.w3.org/1999/xlink" x="0px" y="0px"
	 viewBox="0 0 32 32" style="enable-background:new 0 0 32 32;" xml:space="preserve">
<style type="text/css">
	.st0{fill:#4A4A4A;}
	.st1{fill:#2A7FB0;}
</style>
<g id="Layer_2_1_">
	<g>
		<g>
			<path class="st0" d="M12.1,0c-4.4,0-8,3.6-8,8c0,3.1,1.8,5.8,4.4,7.1c-0.4-1.1-0.6-2.4-0.6-3.8l0,0c-0.8-1-1.3-2.2-1.3-3.6
				C6.6,4.6,9.1,2,12.3,2c0.9,0,1.8,0.2,2.5,0.6C15.4,2.4,16,2.2,16.7,2c0.2,0,0.4,0,0.6,0C15.9,0.7,14.1,0,12.1,0z M10.3,18.9
				c0.5,0.3,1.1,0.5,1.6,0.7c-0.3-0.2-0.6-0.4-0.9-0.6C10.8,18.9,10.6,18.9,10.3,18.9z M0.2,21.2C0,21.7,0,22.5,0.1,23v5h3v-3.5
				C3,24,3,23.1,3.2,22.6c1.4-2.6,3.5-3.3,5.2-4.2c-1-0.3-1.8-0.8-2.5-1.4C4.1,18,1.7,18.5,0.2,21.2z"/>
		</g>
	</g>
</g>
<g id="Layer_3">
	<g id="Layer_2_3_">
		<g id="Layer_2_4_">
			<g>
				<path class="st0" d="M18,20c4.4,0,8-3.6,8-8s-3.6-8-8-8s-8,3.6-8,8S13.6,20,18,20z M18.2,6.1c3.1,0,5.7,2.6,5.7,5.7
					s-2.6,5.7-5.7,5.7s-5.7-2.6-5.7-5.7S15,6.1,18.2,6.1z"/>
				<path class="st0" d="M29.8,25.1C28.6,22.3,25.9,22,24,21c-1.4,1.4-4,2-6.1,2s-4.6-0.7-6.1-2c-1.8,1-4.2,1.5-5.7,4.2
					C5.9,25.7,5.9,26.5,6,27v5h24l-0.1-5C30.1,28.6,30.1,25.8,29.8,25.1z"/>
				<path class="st1" d="M27.8,26.2c-1-1.5-3.2-1.7-4.8-2.2c-1.2,0.8-3.3,1.1-5.1,1.1s-3.8-0.4-5.1-1.1c-1.5,0.5-3.5,0.8-4.7,2.3
					c-0.2,0.3-0.2,0.7-0.1,1V30h20l-0.1-2.7C28.1,28.1,28.1,26.6,27.8,26.2z"/>
			</g>
		</g>
	</g>
</g>
</svg>
