<?xml version="1.0" encoding="utf-8"?>
<!-- Generator: Adobe Illustrator 25.1.0, SVG Export Plug-In . SVG Version: 6.00 Build 0)  -->
<svg version="1.1" id="Layer_1" xmlns="http://www.w3.org/2000/svg" xmlns:xlink="http://www.w3.org/1999/xlink" x="0px" y="0px"
	 viewBox="0 0 32 32" style="enable-background:new 0 0 32 32;" xml:space="preserve">
<style type="text/css">
	.st0{fill:#F4F4F4;}
	.st1{fill:#2A7FB0;}
</style>
<path class="st0" d="M0,13.1C0,12.5,0.5,12,1.1,12h22c0.5,0,0.9,0.4,0.9,0.9v0.2c0,0.5-0.4,0.9-0.9,0.9H0V13.1z"/>
<path class="st0" d="M24,13v11h-2V13c0-0.6,0.4-1,1-1l0,0C23.6,12,24,12.4,24,13z"/>
<rect x="4" y="16" class="st1" width="8" height="2"/>
<rect x="4" y="20" class="st1" width="16" height="2"/>
<path class="st0" d="M2,13v11H0V13c0-0.6,0.4-1,1-1l0,0C1.6,12,2,12.4,2,13z"/>
<path class="st0" d="M4,9.1C4,8.5,4.5,8,5.1,8h22C27.6,8,28,8.4,28,8.9v0.2c0,0.5-0.4,0.9-0.9,0.9H4V9.1z"/>
<path class="st0" d="M28,9v11h-2V9c0-0.6,0.4-1,1-1l0,0C27.6,8,28,8.4,28,9z"/>
<path class="st0" d="M8,5.1C8,4.5,8.5,4,9.1,4h22C31.6,4,32,4.4,32,4.9v0.2C32,5.6,31.6,6,31.1,6H8V5.1z"/>
<path class="st0" d="M32,5v11h-2V5c0-0.6,0.4-1,1-1l0,0C31.6,4,32,4.4,32,5z"/>
<rect y="26" class="st0" width="24" height="4"/>
<polygon class="st0" points="32,22 24,30 24,26 32,18 "/>
</svg>
