<?xml version="1.0" encoding="utf-8"?>
<!-- Generator: Adobe Illustrator 25.1.0, SVG Export Plug-In . SVG Version: 6.00 Build 0)  -->
<svg version="1.1" id="Layer_1" xmlns="http://www.w3.org/2000/svg" xmlns:xlink="http://www.w3.org/1999/xlink" x="0px" y="0px"
	 viewBox="0 0 48 48" style="enable-background:new 0 0 48 48;" xml:space="preserve">
<style type="text/css">
	.st0{fill:#4A4A4A;}
	.st1{fill:#2A7FB0;}
</style>
<polygon class="st0" points="8,17 8,17 8,17 "/>
<g>
	<g>
		<path class="st0" d="M38,20c0-8.8-6.3-16-14-16s-14,7.2-14,16c0,0.3,0,0.7,0,1l0,0l14,24l14-24l0,0C38,20.7,38,20.3,38,20z M24,26
			c-4.4,0-8-3.6-8-8s3.6-8,8-8s8,3.6,8,8S28.4,26,24,26z"/>
		<circle class="st1" cx="24" cy="18" r="5"/>
	</g>
</g>
</svg>
