<?xml version="1.0" encoding="utf-8"?>
<!-- Generator: Adobe Illustrator 25.1.0, SVG Export Plug-In . SVG Version: 6.00 Build 0)  -->
<svg version="1.1" id="Layer_1" xmlns="http://www.w3.org/2000/svg" xmlns:xlink="http://www.w3.org/1999/xlink" x="0px" y="0px"
	 viewBox="0 0 32 32" style="enable-background:new 0 0 32 32;" xml:space="preserve">
<style type="text/css">
	.st0{fill:#2A7FB0;}
	.st1{fill:#4A4A4A;}
</style>
<g id="Layer_3">
	<g>
		<polygon class="st0" points="19.3,8 8,8 8,2 11.4,2.5 14,2 19.3,4.7 		"/>
		<polygon class="st0" points="13.5,8 25,8 25,2 22,2 19.5,2.6 		"/>
	</g>
	<g>
		<polygon class="st0" points="19.3,25 8,25 8,16.9 11.4,19.5 14,18.3 19.3,21.7 		"/>
		<polygon class="st0" points="13.5,25 25,25 25,17.7 23.6,14.7 22.7,16.5 21.4,14.7 19.5,19.6 		"/>
	</g>
</g>
<g id="Layer_2_1_">
	<g>
		<g>
			<path class="st1" d="M24,2v4.1c0,1-0.8,1.9-1.9,1.9H9.9C8.9,8,8,7.2,8,6.1V2H4v30h4v-2.2c0-1,0.8-1.9,1.9-1.9h12.2
				c1,0,1.9,0.8,1.9,1.9V32h4V2H24z M6,29c-0.6,0-1-0.4-1-1s0.4-1,1-1s1,0.4,1,1S6.6,29,6,29z M6,23c-0.6,0-1-0.4-1-1s0.4-1,1-1
				s1,0.4,1,1S6.6,23,6,23z M6,17c-0.6,0-1-0.4-1-1s0.4-1,1-1s1,0.4,1,1S6.6,17,6,17z M6,11c-0.6,0-1-0.4-1-1s0.4-1,1-1s1,0.4,1,1
				S6.6,11,6,11z M6,5C5.4,5,5,4.6,5,4s0.4-1,1-1s1,0.4,1,1S6.6,5,6,5z M24,22.1c0,1-0.8,1.9-1.9,1.9H9.9c-1,0-1.9-0.8-1.9-1.9v-8.2
				c0-1,0.8-1.9,1.9-1.9h12.2c1,0,1.9,0.8,1.9,1.9C24,13.9,24,22.1,24,22.1z M26,29c-0.6,0-1-0.4-1-1s0.4-1,1-1s1,0.4,1,1
				S26.6,29,26,29z M26,23c-0.6,0-1-0.4-1-1s0.4-1,1-1s1,0.4,1,1S26.6,23,26,23z M26,17c-0.6,0-1-0.4-1-1s0.4-1,1-1s1,0.4,1,1
				S26.6,17,26,17z M26,11c-0.6,0-1-0.4-1-1s0.4-1,1-1s1,0.4,1,1S26.6,11,26,11z M26,5c-0.6,0-1-0.4-1-1s0.4-1,1-1s1,0.4,1,1
				S26.6,5,26,5z"/>
		</g>
	</g>
</g>
</svg>
