<?xml version="1.0" encoding="utf-8"?>
<!-- Generator: Adobe Illustrator 25.1.0, SVG Export Plug-In . SVG Version: 6.00 Build 0)  -->
<svg version="1.1" id="Layer_1" xmlns="http://www.w3.org/2000/svg" xmlns:xlink="http://www.w3.org/1999/xlink" x="0px" y="0px"
	 viewBox="0 0 32 32" style="enable-background:new 0 0 32 32;" xml:space="preserve">
<style type="text/css">
	.st0{fill:#2A7FB0;}
	.st1{fill:#4A4A4A;}
</style>
<rect x="18.9" y="12.9" class="st0" width="8.1" height="16"/>
<g>
	<path class="st1" d="M27.9,12.3L20,10.4v-6c0-0.3,0.5-0.8,0.4-1.4c-0.1-0.8-1-1.4-1.8-1.3L5.3,4c-0.8,0.1-2,0.8-1.8,1.6
		c0,0.5,0.2,0.8,0.5,1V29c0,0.5,0.5,1,1,1h13.7H27c0.5,0,1-0.5,1-1V15c0.3-0.2,0.8-0.5,0.9-0.9C29.1,13.3,28.7,12.5,27.9,12.3z
		 M18,12.4V28h-5v-5h-3v5H6V6.9L18,5V12.4z M26,28h-2v-2h-2v2h-2V13.6l6,1.5V28z"/>
	<rect x="10" y="8" class="st1" width="3" height="3"/>
	<rect x="10" y="13" class="st1" width="3" height="3"/>
	<rect x="10" y="18" class="st1" width="3" height="3"/>
	<rect x="22" y="16" class="st1" width="2" height="2"/>
	<rect x="22" y="19" class="st1" width="2" height="2"/>
	<rect x="22" y="22" class="st1" width="2" height="2"/>
</g>
</svg>
